<svg width="200" height="200" viewBox="0 0 200 200" fill="none" xmlns="http://www.w3.org/2000/svg">
<path fill-rule="evenodd" clip-rule="evenodd" d="M43.4314 156.569L44.1385 157.276L68.1879 133.226C70.8403 135.767 73.7964 137.992 76.9962 139.844L69.6309 152.601L70.4969 153.101L77.8672 140.335C81.063 142.093 84.4901 143.481 88.0914 144.444L84.2798 158.669L85.2457 158.927L89.0603 144.691C92.4774 145.525 96.0443 145.977 99.7129 145.999L100 146.669V180H101V145.989C104.418 145.917 107.744 145.471 110.94 144.691L114.754 158.927L115.72 158.669L111.909 144.444C115.51 143.481 118.937 142.093 122.133 140.335L129.503 153.101L130.369 152.601L123.004 139.844C126.204 137.992 129.16 135.767 131.812 133.226L155.861 157.276L156.569 156.569L132.527 132.527C135.13 129.924 137.423 127.01 139.344 123.846L139.334 123.864L152.101 131.235L152.601 130.369L139.844 123.004C141.672 119.845 143.134 116.448 144.175 112.872L158.41 116.686L158.669 115.72L144.444 111.909L144.438 111.931C145.374 108.434 145.909 104.773 145.989 101H180V100H146.669L145.999 99.7129C145.977 96.0443 145.525 92.4775 144.691 89.0603L158.927 85.2457L158.669 84.2798L144.444 88.0914C143.481 84.4901 142.093 81.063 140.335 77.8672L153.101 70.4969L152.601 69.6309L139.844 76.9962C137.992 73.7964 135.767 70.8403 133.226 68.1878L157.276 44.1385L156.569 43.4315L132.527 67.4731C129.929 64.8748 127.021 62.5859 123.864 60.6664L131.235 47.8992L130.369 47.3992L123.004 60.1562L123.025 60.1686C119.86 58.3351 116.457 56.8679 112.872 55.8252L116.686 41.5903L115.72 41.3314L111.909 55.5564C108.419 54.6236 104.765 54.091 101 54.0107V20H100V53.3309L99.7129 54.0009C95.6962 54.0254 91.8014 54.5648 88.0914 55.5564L84.2798 41.3314L83.3138 41.5902L87.1282 55.8252C83.5518 56.8655 80.1553 58.3284 76.9962 60.1562L69.6309 47.3992L68.7649 47.8992L76.136 60.6664C72.979 62.5859 70.0714 64.8748 67.4731 67.4731L43.4315 43.4315L42.7244 44.1385L66.7737 68.1878C64.2334 70.8403 62.0077 73.7964 60.1562 76.9962L47.3992 69.6309L46.8992 70.4969L59.6648 77.8672C57.9075 81.063 56.5189 84.4901 55.5564 88.0914L41.3314 84.2798L41.0726 85.2457L55.3087 89.0603L55.3152 89.0342C54.4775 92.4594 54.0233 96.035 54.0009 99.7129L53.3309 100H20V101H54.0106C54.0909 104.765 54.6235 108.419 55.5564 111.909L41.3314 115.72L41.5902 116.686L55.8252 112.872C56.8656 116.448 58.3285 119.845 60.1562 123.004L47.3992 130.369L47.8992 131.235L60.6664 123.864L60.6481 123.834C62.5713 127.002 64.8665 129.92 67.473 132.527L43.4314 156.569ZM55.0056 100.718C55.3853 125.001 74.9993 144.615 99.2823 144.994L98.4154 142.971C75.9271 142.157 57.8434 124.073 57.0287 101.585L55.0056 100.718ZM58.0477 102.021C59.0707 123.609 76.3912 140.929 97.9786 141.952L95.2975 135.696C87.2587 134.647 80.0533 130.946 74.5884 125.5H73.793L74.1931 125.1C68.915 119.674 65.3333 112.589 64.3043 104.703L58.0477 102.021ZM74.9003 124.393C69.9061 119.255 66.476 112.589 65.3781 105.163L85.5051 113.788L74.9003 124.393ZM76.0259 125.5C81.105 130.277 87.6115 133.554 94.8373 134.622L90.9282 125.5H76.0259ZM92.0162 125.5L95.99 134.773C97.1439 134.904 98.3148 134.98 99.5 134.997V125.75H100.5V134.997C101.685 134.98 102.856 134.904 104.01 134.773L107.984 125.5H92.0162ZM108.412 124.5H91.5876L86.9738 113.734L88.338 112.369C88.1815 112.222 88.028 112.071 87.8772 111.918C87.7942 111.833 87.712 111.748 87.6309 111.662L86.2667 113.026L65.2272 104.01C65.0955 102.856 65.0201 101.685 65.0035 100.5H74.25V99.5H65.0035C65.0201 98.3148 65.0955 97.1439 65.2272 95.9899L82.7692 88.4724C82.9432 88.6633 83.1195 88.8534 83.2979 89.0427C83.9857 89.7725 84.7062 90.4904 85.4576 91.1906C85.6337 90.9008 85.818 90.6166 86.0105 90.3384C85.322 89.6919 84.6599 89.0298 84.0256 88.3568C83.931 88.2564 83.837 88.1558 83.7437 88.0549L86.7616 86.7615L91.5876 75.5H108.412L113.026 86.2667L111.662 87.6309C111.794 87.7552 111.924 87.8818 112.052 88.0103C112.159 88.1181 112.265 88.2273 112.369 88.338L113.734 86.9737L134.773 95.9899C134.905 97.1439 134.98 98.3148 134.996 99.5H125.75V100.5H134.996C134.98 101.685 134.905 102.856 134.773 104.01L117.718 111.319C116.832 110.27 115.882 109.241 114.87 108.246C114.703 108.547 114.527 108.842 114.342 109.131C115.193 109.976 115.998 110.846 116.756 111.731L113.238 113.238L108.412 124.5ZM109.072 125.5L105.163 134.622C112.389 133.554 118.895 130.277 123.974 125.5H109.072ZM125.412 125.5H125.681L125.616 125.294C130.999 119.844 134.654 112.684 135.696 104.703L141.952 102.021C140.929 123.609 123.609 140.929 102.021 141.952L104.703 135.696C112.741 134.647 119.947 130.946 125.412 125.5ZM125.27 124.217C124.016 120.543 121.684 116.218 118.381 112.123L134.622 105.163C133.537 112.504 130.172 119.103 125.27 124.217ZM117.426 112.532C120.731 116.577 123.064 120.867 124.31 124.5H109.5L114 114L117.426 112.532ZM114.495 86.2122L134.622 94.8373C133.524 87.4114 130.094 80.7453 125.1 75.6074L114.495 86.2122ZM125.807 74.9002L126.207 74.5H125.412C119.947 69.054 112.741 65.3531 104.703 64.3044L102.021 58.0478C123.609 59.0707 140.929 76.3912 141.952 97.9786L135.696 95.2974C134.667 87.4105 131.085 80.326 125.807 74.9002ZM123.974 74.5H109.072L105.163 65.3781C112.389 66.4464 118.895 69.723 123.974 74.5ZM109.5 75.5L113.788 85.5051L123.793 75.5H109.5ZM107.984 74.5L104.01 65.2272C102.856 65.0956 101.685 65.0201 100.5 65.0035V74.25H99.5V65.0035C98.3148 65.0201 97.1438 65.0956 95.9899 65.2272L92.0161 74.5H107.984ZM90.9282 74.5L94.8373 65.3781C87.6115 66.4464 81.105 69.723 76.0259 74.5H90.9282ZM74.7375 75.7758C69.8317 80.8906 66.464 87.4923 65.3781 94.8373L82.0674 87.6853C78.5745 83.6791 76.0413 79.4091 74.7375 75.7758ZM74.3794 74.71C68.9993 80.16 65.3453 87.3181 64.3043 95.2974L58.0477 97.9786C59.0707 76.3912 76.3912 59.0707 97.9786 58.0478L95.2975 64.3044C87.2587 65.3531 80.0533 69.054 74.5884 74.5H74.3108L74.3794 74.71ZM83.0343 87.2709L86 86L90.4996 75.5H75.701C76.9885 79.0554 79.5176 83.2939 83.0343 87.2709ZM86.2122 114.495L90.4996 124.5H76.2072L86.2122 114.495ZM64.1737 103.559L58.0098 100.917L58.0063 100.743C58.005 100.668 58.0039 100.593 58.0031 100.517L58.0028 100.5H64.0034C64.0175 101.531 64.0748 102.551 64.1737 103.559ZM64.0034 99.5H58.0028L58.0054 99.3133C58.0066 99.2365 58.0081 99.1596 58.0098 99.0829L64.1737 96.4414C64.0748 97.4493 64.0175 98.4694 64.0034 99.5ZM103.559 64.1736C102.551 64.0748 101.531 64.0175 100.5 64.0034V58.0029C100.585 58.004 100.67 58.0052 100.755 58.0067L100.917 58.0098L103.559 64.1736ZM99.5 64.0034V58.0029C99.3608 58.0046 99.2218 58.0068 99.0829 58.0098L96.4414 64.1736C97.4493 64.0748 98.4695 64.0175 99.5 64.0034ZM96.4414 135.826C97.4493 135.925 98.4695 135.983 99.5 135.997V141.997L99.2594 141.994L99.0829 141.99L96.4414 135.826ZM100.5 135.997V141.997C100.639 141.995 100.778 141.993 100.917 141.99L103.559 135.826C102.551 135.925 101.531 135.983 100.5 135.997ZM135.997 100.5C135.983 101.531 135.925 102.551 135.826 103.559L141.99 100.917C141.993 100.778 141.996 100.639 141.997 100.5H135.997ZM141.997 99.5C141.996 99.3608 141.993 99.2217 141.99 99.0829L135.826 96.4414C135.925 97.4493 135.983 98.4694 135.997 99.5H141.997ZM57.0287 98.4154C57.8434 75.9271 75.9271 57.8433 98.4154 57.0287L99.2823 55.0056C74.9993 55.3853 55.3853 74.9993 55.0056 99.2823L57.0287 98.4154ZM100.718 55.0056L101.585 57.0287C124.073 57.8433 142.157 75.9271 142.971 98.4154L144.994 99.2823C144.615 74.9993 125.001 55.3853 100.718 55.0056ZM144.994 100.718L142.971 101.585C142.157 124.073 124.073 142.157 101.585 142.971L100.718 144.994C125.001 144.615 144.615 125.001 144.994 100.718ZM99.5 114.992V118H100.5V114.992C108.387 114.734 114.734 108.387 114.992 100.5H118V99.5H114.992C114.734 91.6132 108.387 85.2665 100.5 85.0082V82H99.5V85.0082C91.6132 85.2665 85.2665 91.6132 85.0082 99.5H82V100.5H85.0082C85.2665 108.387 91.6132 114.734 99.5 114.992ZM100.5 113.991C107.834 113.734 113.734 107.834 113.991 100.5H110.989C110.93 101.819 110.639 103.078 110.155 104.236C110.819 104.721 111.464 105.222 112.09 105.739C111.943 106.048 111.785 106.35 111.616 106.646C111.002 106.134 110.37 105.637 109.719 105.157C107.944 108.495 104.5 110.81 100.5 110.989V113.991ZM109.317 103.641C108.477 103.061 107.609 102.509 106.713 101.99C106.854 101.513 106.946 101.014 106.982 100.5H109.988C109.933 101.603 109.7 102.66 109.317 103.641ZM105.481 102.445C104.148 101.714 102.755 101.06 101.304 100.5H100.5V105.979C102.727 105.796 104.61 104.396 105.481 102.445ZM106.355 102.94C105.31 105.194 103.101 106.799 100.5 106.982V109.988C104.165 109.807 107.31 107.654 108.898 104.568C108.078 103.996 107.23 103.451 106.355 102.94ZM99.5 98.7984C97.923 98.235 96.3994 97.5549 94.936 96.7803C95.9169 95.241 97.5803 94.1789 99.5 94.0205V98.7984ZM100.5 99.1416V94.0205C103.415 94.261 105.739 96.5851 105.979 99.5H101.489C101.162 99.3759 100.833 99.2563 100.5 99.1416ZM103.855 100.5C104.522 100.811 105.175 101.14 105.814 101.487C105.896 101.167 105.952 100.838 105.979 100.5H103.855ZM94.4709 97.6656C95.7719 98.3541 97.1205 98.9706 98.5123 99.5H94.0205C94.0737 98.8541 94.2294 98.2372 94.4709 97.6656ZM93.5894 97.1841C93.2739 97.9011 93.0753 98.6812 93.0176 99.5H90.0123C90.0809 98.1068 90.4347 96.7885 91.0164 95.6024C91.8501 96.1589 92.7083 96.6878 93.5894 97.1841ZM94.0569 96.2997C95.2102 94.4512 97.2019 93.1798 99.5 93.0176V90.0123C96.1223 90.1786 93.1853 92.0208 91.5031 94.7248C92.3307 95.2797 93.1824 95.8063 94.0569 96.2997ZM90.6783 94.1571C92.5413 91.1913 95.7803 89.1776 99.5 89.0112V86.0088C92.1655 86.2662 86.2662 92.1655 86.0088 99.5H89.0111C89.0828 97.8975 89.4974 96.3841 90.1833 95.0316C89.5231 94.5674 88.879 94.0863 88.252 93.5908C88.4136 93.2951 88.5861 93.0062 88.7689 92.7246C89.3889 93.2175 90.0256 93.6959 90.6783 94.1571ZM99.5 110.989V113.991C92.1655 113.734 86.2662 107.834 86.0088 100.5H89.0111C89.2651 106.177 93.8226 110.735 99.5 110.989ZM99.5 106.982V109.988C94.3751 109.735 90.2646 105.625 90.0123 100.5H93.0176C93.2623 103.967 96.0325 106.738 99.5 106.982ZM99.5 100.5V105.979C96.5851 105.739 94.261 103.415 94.0205 100.5H99.5ZM100.5 93.0176C103.968 93.2623 106.738 96.0325 106.982 99.5H109.988C109.735 94.3751 105.625 90.2646 100.5 90.0123V93.0176ZM100.5 89.0112C106.177 89.2651 110.735 93.8227 110.989 99.5H113.991C113.734 92.1655 107.834 86.2662 100.5 86.0088V89.0112Z" fill="white"/>
</svg>
