<svg width="200" height="200" viewBox="0 0 200 200" fill="none" xmlns="http://www.w3.org/2000/svg">
<path fill-rule="evenodd" clip-rule="evenodd" d="M67.4731 132.527L43.4314 156.569L44.1386 157.276L68.1878 133.226C70.8403 135.767 73.7964 137.992 76.9962 139.844L69.6309 152.601L70.4969 153.101L77.8672 140.335C81.063 142.093 84.4901 143.481 88.0914 144.444L84.2798 158.669L85.2457 158.927L89.0603 144.691C92.5666 145.547 96.2303 146 100 146L100 180H101V145.989C104.418 145.916 107.744 145.471 110.94 144.691L114.754 158.927L115.72 158.669L111.909 144.444C115.51 143.481 118.937 142.093 122.133 140.335L129.503 153.101L130.369 152.601L123.004 139.844C126.204 137.992 129.16 135.767 131.812 133.226L155.861 157.276L156.569 156.569L132.527 132.527C135.063 129.991 137.304 127.16 139.195 124.09C139.323 124.059 139.447 124.028 139.567 123.999L152.101 131.235L152.601 130.369L140.963 123.65L141.287 123.569L140.187 123.202L139.844 123.004C141.672 119.845 143.134 116.448 144.175 112.872L158.41 116.686L158.669 115.72L144.444 111.909C144.626 111.228 144.792 110.541 144.943 109.848L146.086 109.328L145.097 109.117C145.626 106.485 145.93 103.773 145.989 101H180V100L146 100C146 96.2303 145.547 92.5666 144.691 89.0603L158.927 85.2457L158.669 84.2798L144.444 88.0914C143.481 84.4901 142.093 81.063 140.335 77.8672L153.101 70.497L152.601 69.6309L139.844 76.9962C137.992 73.7964 135.767 70.8403 133.226 68.1878L157.276 44.1386L156.569 43.4315L132.527 67.4731C129.929 64.8748 127.021 62.5859 123.864 60.6664L131.235 47.8992L130.369 47.3992L123.004 60.1562C119.845 58.3284 116.448 56.8655 112.872 55.8252L116.686 41.5902L115.72 41.3314L111.909 55.5564C108.419 54.6236 104.765 54.091 101 54.0107V20H100V54C95.8816 54 91.8897 54.5412 88.0914 55.5564L84.2798 41.3314L83.3139 41.5902L87.1281 55.8252C83.5517 56.8655 80.1552 58.3284 76.9962 60.1562L69.6309 47.3992L68.7649 47.8992L76.136 60.6664C72.979 62.5859 70.0714 64.8748 67.4731 67.4731L43.4315 43.4314L42.7244 44.1386L66.7736 68.1878C64.2334 70.8403 62.0076 73.7964 60.1562 76.9962L47.3992 69.6309L46.8992 70.4969L59.6648 77.8672C57.9075 81.063 56.5189 84.4901 55.5564 88.0914L41.3314 84.2798L41.0726 85.2457L55.3088 89.0603C54.4534 92.5666 54 96.2303 54 100L20 100V101H54.0107C54.091 104.765 54.6236 108.419 55.5564 111.909L41.3314 115.72L41.5903 116.686L55.8252 112.872C56.8655 116.448 58.3284 119.845 60.1562 123.004L47.3992 130.369L47.8992 131.235L60.6664 123.864C62.5859 127.021 64.8748 129.929 67.4731 132.527ZM144.12 108.903C144.697 106.025 145 103.048 145 100C145 75.1472 124.853 55 100 55C75.1472 55 55 75.1472 55 100C55 124.853 75.1472 145 100 145C115.853 145 129.792 136.802 137.808 124.415C136.95 124.608 135.993 124.811 134.984 125.008C132.67 128.239 129.92 131.136 126.82 133.613C126.999 133.792 127.177 133.97 127.354 134.146L126.803 134.96C126.473 134.818 126.094 134.663 125.675 134.497C118.509 139.838 109.624 143 100 143C96.6888 143 93.465 142.626 90.3686 141.917L89.9531 142.398L89.9723 141.825C85.7356 140.812 81.7425 139.173 78.0963 137.011L76.882 137.618L77.3973 136.587C65.1551 129.008 57 115.457 57 100C57 97.7454 57.1735 95.5313 57.5079 93.3704C57.6352 88.3234 59.2888 83.6556 62.0244 79.8113C68.7847 67.1214 81.7195 58.2198 96.8195 57.1158C97.0157 57.0786 97.2138 57.0425 97.4138 57.0075L98.1503 56.8786L98.1143 57.0406C98.7395 57.0136 99.3681 57 100 57C111.882 57 122.639 61.8194 130.421 69.6101C130.717 69.7677 130.993 69.92 131.248 70.0659L131.724 70.3378L131.471 70.6986C138.553 78.301 142.912 88.4723 142.999 99.661L143.609 99.9049L142.999 100.28C142.981 103.057 142.7 105.772 142.18 108.401C142.907 108.606 143.57 108.775 144.12 108.903ZM143.802 110.359C143.145 110.647 142.348 110.989 141.488 111.344C140.459 115.117 138.929 118.683 136.974 121.966C137.659 122.271 138.298 122.531 138.843 122.735C141.074 118.931 142.763 114.77 143.802 110.359ZM136.061 121.543C137.867 118.527 139.305 115.266 140.314 111.821C138.699 112.464 136.991 113.094 135.637 113.481C134.158 113.903 132.05 113.983 130.06 113.925C128.6 113.882 127.172 113.763 126.047 113.636C128.067 115.471 129.847 117.14 130.854 118.146C131.998 119.291 133.694 120.346 135.377 121.205C135.607 121.322 135.835 121.435 136.061 121.543ZM141.8 110.131C142.204 109.961 142.588 109.797 142.942 109.643C142.636 109.564 142.312 109.477 141.973 109.382C141.918 109.633 141.86 109.882 141.8 110.131ZM141.011 109.102C140.899 109.607 140.779 110.109 140.649 110.607C138.861 111.335 136.875 112.087 135.363 112.519C134.042 112.897 132.067 112.983 130.09 112.925C128.127 112.868 126.221 112.669 125.071 112.505L125.039 112.725C124.334 112.091 123.612 111.447 122.893 110.813C121.297 109.404 119.715 108.041 118.373 106.935C117.041 105.837 115.919 104.969 115.257 104.571C113.671 103.62 109.281 101.152 106.029 99.3361C106.156 98.6287 106.257 97.9144 106.332 97.1986C110.79 98.6022 117.823 101.324 122.704 104.903L123.296 104.097C118.217 100.373 110.929 97.582 106.422 96.1789C106.464 95.5908 106.489 95.0034 106.497 94.4197C109.688 94.8075 112.146 95.2669 115.392 95.9881C117.556 96.4692 121.243 98.304 124.878 100.372C125.929 100.97 126.968 101.583 127.958 102.183L127.888 102.487C128.115 102.54 128.393 102.594 128.714 102.646C130.808 103.934 132.611 105.122 133.709 105.907C135.169 106.95 137.266 107.843 139.261 108.535C139.856 108.741 140.445 108.93 141.011 109.102ZM141.216 108.119C141.677 105.766 141.941 103.342 141.991 100.866C139.474 102.2 136.634 102.737 134.142 102.887C133.005 102.955 131.932 102.943 130.984 102.887C132.342 103.753 133.494 104.524 134.291 105.093C135.631 106.05 137.617 106.907 139.589 107.59C140.141 107.781 140.688 107.958 141.216 108.119ZM141.993 99.2421C141.921 95.1596 141.266 91.2191 140.109 87.5003C135.878 89.431 131.18 90.1965 128.272 90.4221C128.844 90.8097 129.411 91.1998 129.972 91.5891C130.646 92.0563 131.312 92.522 131.968 92.9815L131.97 92.9828L131.971 92.9835L131.971 92.9835C135.628 95.5428 139.005 97.906 141.993 99.2421ZM139.524 85.7583C137.6 80.4211 134.627 75.5855 130.852 71.5011C129.422 73.1771 126.507 75.6646 122.538 76.6927C123.592 77.0471 124.667 77.4322 125.742 77.8458C130.949 79.8486 136.287 82.5573 139.524 85.7583ZM129.819 70.4227C129.934 70.538 130.047 70.654 130.16 70.7706C128.72 72.4944 125.424 75.3135 120.924 76.0058L120.95 76.1768C117.04 74.9506 113.56 74.1852 111.545 74.0021C107.084 73.5965 101.889 73.6665 97.0145 74.6385C96.2101 74.0137 95.3656 73.4379 94.4856 72.9157C99.4692 71.0592 106.801 69.5387 116.476 69.9994L116.524 69.0006C106.233 68.5105 98.495 70.2318 93.3495 72.2817C92.2669 71.7148 91.1367 71.2265 89.9665 70.8243C93.6893 68.3888 98.7651 65.9239 104.579 64.9937C109.478 64.2099 114.857 65.0243 119.613 66.3808C123.777 67.5686 127.432 69.1624 129.819 70.4227ZM127.347 68.1219C119.999 61.8126 110.445 58 100 58C99.2949 58 98.5939 58.0174 97.8974 58.0517C97.5359 59.9889 97.7217 61.4571 97.9309 62.7315C97.9518 62.8589 97.9733 62.9857 97.9948 63.1121C98.1384 63.9575 98.2782 64.7803 98.2019 65.6076C100.152 64.9157 102.235 64.356 104.421 64.0063C109.522 63.1901 115.06 64.0424 119.887 65.4192C122.667 66.2119 125.225 67.1827 127.347 68.1219ZM89.5415 59.3125C79.8196 61.8041 71.457 67.6883 65.7901 75.6288C69.3785 72.4601 73.9024 70.3264 78.8945 69.695C80.2756 66.0721 83.4081 62.0112 89.5415 59.3125ZM80.0197 69.5789C80.6729 69.5266 81.3333 69.5 82 69.5C82.8727 69.5 83.7347 69.5456 84.5838 69.6346C84.9823 69.051 85.4205 68.4555 85.8978 67.8617C87.8589 65.422 90.5027 62.9843 93.7996 61.5419L94.2004 62.4581C91.0973 63.8157 88.5744 66.128 86.6772 68.4883C86.3306 68.9194 86.0057 69.3512 85.7026 69.778C86.7387 69.935 87.7535 70.157 88.7427 70.4395C91.0322 68.8776 93.8769 67.2704 97.1264 66.0074C97.3268 65.1854 97.1881 64.3558 97.0019 63.2414L97.0017 63.2403L97.0013 63.2379C96.9826 63.126 96.9634 63.0113 96.9441 62.8935C96.7357 61.6242 96.5389 60.1017 96.8691 58.1245C86.5774 60.1138 81.8776 65.1792 80.0197 69.5789ZM98.0237 75.4659C98.8837 76.2102 99.6915 77.0133 100.441 77.869C106.835 77.3621 115.272 78.198 124.219 82.5504L123.781 83.4496C115.333 79.3397 107.365 78.438 101.229 78.8158C101.793 79.529 102.318 80.2744 102.801 81.0487C107.151 81.2148 110.844 82.2313 115.144 83.5211C119.13 84.717 123.1 87.0001 126.886 89.495C129.29 89.436 134.475 88.8381 139.168 86.8234C136.148 83.635 130.78 80.8548 125.383 78.7792C119.719 76.6006 114.142 75.2422 111.455 74.998C107.287 74.619 102.524 74.6674 98.0237 75.4659ZM103.409 82.0793C104.303 83.6812 105.023 85.3937 105.541 87.1913C108.124 87.3491 111.204 87.8742 114.658 89.0257C118.222 90.2135 120.641 91.7429 122.84 93.209C123.022 93.3302 123.202 93.4509 123.381 93.5708L123.381 93.5709L123.381 93.5711C125.368 94.9018 127.21 96.1354 129.671 97.0301L129.329 97.9699C126.75 97.0319 124.811 95.7332 122.835 94.4086C122.652 94.2862 122.469 94.1636 122.285 94.041C120.109 92.5905 117.778 91.1198 114.342 89.9743C111.11 88.8972 108.233 88.387 105.812 88.2115C106.217 89.8845 106.451 91.6245 106.493 93.412C109.779 93.807 112.289 94.2743 115.608 95.0119C117.943 95.5308 121.757 97.446 125.372 99.5029C126.642 100.225 127.896 100.971 129.067 101.689C130.269 101.868 132.066 102.01 134.082 101.888C136.442 101.747 139.065 101.247 141.375 100.06C138.335 98.6607 134.94 96.2835 131.382 93.792L131.381 93.7919L131.381 93.7919C130.727 93.3336 130.067 92.8715 129.403 92.4109C128.475 91.7676 127.537 91.1262 126.592 90.4997L126.5 90.5V90.4387C122.695 87.9214 118.767 85.6522 114.856 84.4789C110.82 83.268 107.368 82.3124 103.409 82.0793ZM105.823 100.367C109.041 102.164 113.216 104.512 114.743 105.429C115.331 105.781 116.396 106.601 117.737 107.706C119.067 108.803 120.64 110.158 122.232 111.562C125.417 114.373 128.658 117.365 130.146 118.854C131.402 120.109 133.206 121.22 134.923 122.095C135.128 122.2 135.332 122.301 135.535 122.4C135.17 122.977 134.792 123.544 134.4 124.102C133.308 124.311 132.164 124.51 131.026 124.681C129.448 124.917 127.89 125.096 126.509 125.166C125.119 125.237 123.942 125.197 123.108 125.012C121.414 124.635 119.359 123.438 117.444 122.046C115.749 120.812 114.209 119.46 113.198 118.484C112.983 118.107 112.762 117.712 112.534 117.304L112.532 117.302L112.532 117.302L112.532 117.301L112.532 117.301C112.162 116.642 111.775 115.951 111.371 115.25C110.431 113.622 109.416 111.969 108.39 110.688C107.556 109.644 106.188 108.409 104.843 107.301C104.457 106.984 104.07 106.675 103.695 106.381C104.105 105.756 104.43 105.07 104.653 104.339C108.438 106.355 114.075 109.978 118.635 114.842L119.365 114.158C114.656 109.136 108.839 105.419 104.971 103.376C105.314 102.405 105.597 101.396 105.823 100.367ZM103.806 103.643C103.866 103.396 103.912 103.144 103.944 102.887C103.946 102.875 103.947 102.864 103.949 102.852C103.983 102.573 104 102.288 104 102C104 98.134 100.866 95 97 95C93.134 95 90 98.134 90 102C90 104.586 91.4025 106.845 93.4883 108.057C93.8141 108.246 94.1566 108.41 94.513 108.545C94.5254 108.55 94.5379 108.555 94.5504 108.559C94.6342 108.591 94.7187 108.62 94.804 108.649C95.1139 108.751 95.4335 108.832 95.7609 108.891C95.7654 108.891 95.7699 108.892 95.7743 108.893C95.9866 108.931 96.2021 108.958 96.4205 108.976C96.6116 108.992 96.8049 109 97 109C97.3916 109 97.7757 108.968 98.1497 108.906C98.154 108.905 98.1583 108.905 98.1626 108.904C98.3552 108.872 98.5451 108.832 98.7321 108.784C98.7321 108.784 98.7321 108.784 98.7321 108.784C99.0358 108.707 99.3316 108.61 99.6179 108.494C99.6423 108.484 99.6666 108.474 99.6909 108.464C99.7796 108.427 99.8673 108.388 99.9541 108.348C100.237 108.216 100.51 108.066 100.771 107.899C100.791 107.886 100.811 107.873 100.831 107.859C101.38 107.5 101.875 107.066 102.302 106.571C102.398 106.459 102.491 106.344 102.581 106.226C103.046 105.419 103.454 104.552 103.806 103.643ZM103.095 107.182C102.566 107.804 101.942 108.344 101.247 108.781C101.84 110.072 102.552 111.532 103.341 113.015C104.844 115.838 106.613 118.712 108.372 120.666L107.628 121.334C105.787 119.288 103.972 116.329 102.459 113.485C101.672 112.007 100.962 110.552 100.367 109.259C100.202 109.336 100.034 109.407 99.8633 109.472C100.193 111.486 100.501 113.865 100.731 116.229C101.666 117.712 103.109 119.812 104.726 121.81C106.544 124.057 108.534 126.114 110.243 127.063C112.458 128.294 115.802 129.657 119.054 130.908C120.193 131.346 121.321 131.771 122.383 132.17L122.385 132.171L122.385 132.171L122.392 132.173L122.399 132.176C123.302 132.516 124.157 132.837 124.927 133.133C122.684 130.886 120.378 128.56 118.388 126.47C115.9 123.857 113.856 121.565 113.071 120.257C112.858 119.902 112.633 119.514 112.399 119.103C112.311 119.017 112.226 118.933 112.146 118.854L112.217 118.783C112.032 118.455 111.842 118.116 111.648 117.77L111.647 117.769L111.646 117.766L111.646 117.766L111.646 117.765L111.645 117.765L111.645 117.764L111.644 117.763C111.275 117.105 110.893 116.423 110.504 115.75C109.569 114.128 108.584 112.531 107.61 111.312C106.844 110.356 105.545 109.175 104.207 108.074C103.833 107.766 103.459 107.466 103.095 107.182ZM98.8992 109.773C98.681 109.826 98.4593 109.871 98.2345 109.905C98.4199 113.022 98.3924 118.088 97.4945 124.074L96.5056 123.926C97.3486 118.305 97.4123 113.52 97.2625 110.451C96.5672 115.829 94.9164 119.734 93.9054 122.125L93.9053 122.125C93.7385 122.52 93.5891 122.874 93.4642 123.186C93.1843 123.885 92.4626 124.891 91.4997 126.019L91.0475 139.583C92.5487 137.79 94.4558 135.392 96.1299 133.035C97.1516 131.597 98.0809 130.182 98.7775 128.934C99.4839 127.669 99.9169 126.634 100.004 125.938C100.247 123.996 100.127 120.669 99.8145 117.169C99.7964 116.967 99.7777 116.764 99.7583 116.56C99.694 116.457 99.6323 116.357 99.5734 116.261L99.7206 116.171C99.4994 113.929 99.2091 111.687 98.8992 109.773ZM96.3147 109.971C96.0299 109.947 95.7493 109.908 95.4738 109.855C94.3979 113.109 92.0756 118.457 88.3817 122.823L87.6183 122.177C91.1895 117.957 93.4513 112.765 94.5039 109.603C94.176 109.495 93.8575 109.367 93.5499 109.22C92.3492 110.038 90.8894 111.121 89.5277 112.303C88.5936 113.113 87.713 113.964 86.9956 114.803C86.2741 115.647 85.7389 116.454 85.4682 117.176C84.9876 118.457 84.3533 120.407 83.6267 122.64L83.6266 122.64L83.6265 122.64L83.6265 122.64L83.6265 122.641C83.2254 123.873 82.7962 125.192 82.3493 126.533C81.3112 129.648 80.1786 132.874 79.0973 135.331C81.7144 133.79 84.592 131.48 87.0336 129.197C88.4603 127.864 89.7283 126.549 90.6985 125.417C91.6834 124.268 92.3197 123.354 92.5358 122.814C92.6645 122.492 92.8169 122.132 92.9857 121.732C94.018 119.287 95.6674 115.381 96.3147 109.971ZM92.5836 108.672C90.4239 107.239 89 104.786 89 102C89 101.612 89.0276 101.231 89.0808 100.859C85.9625 104.611 81.2603 107 76 107C66.8696 107 59.4203 99.8021 59.0172 90.7711C58.8185 91.6574 58.6478 92.5542 58.5061 93.4606C58.502 93.6399 58.5 93.8197 58.5 94C58.5 106.979 69.0213 117.5 82 117.5C82.7852 117.5 83.5612 117.462 84.3263 117.386C84.3976 117.187 84.4661 117 84.5318 116.824C84.8611 115.946 85.4801 115.037 86.2356 114.153C86.9953 113.265 87.9147 112.378 88.8723 111.547C90.1174 110.467 91.4395 109.469 92.5836 108.672ZM83.9651 118.422C83.3168 118.474 82.6614 118.5 82 118.5C70.1841 118.5 60.3218 110.135 58.0116 99.0046C58.0039 99.3355 58 99.6673 58 100C58 115.062 65.9283 128.272 77.8391 135.684C78.9937 133.223 80.2455 129.682 81.4007 126.217C81.8389 124.902 82.2636 123.597 82.6628 122.37L82.6629 122.37L82.6631 122.369L82.6638 122.367L82.664 122.366C83.1407 120.901 83.5812 119.548 83.9651 118.422ZM79.1387 136.461C82.4972 138.387 86.1473 139.862 90.0063 140.804L90.4603 127.184C89.6512 128.056 88.7208 128.989 87.7164 129.928C85.1108 132.363 81.9754 134.869 79.1387 136.461ZM91.1101 141.057C93.9756 141.675 96.9498 142 100 142C109.174 142 117.662 139.058 124.57 134.067C123.811 133.775 122.966 133.458 122.068 133.12L122.068 133.12L122.067 133.12C121 132.718 119.859 132.289 118.696 131.842C115.448 130.593 112.042 129.206 109.757 127.937C107.866 126.886 105.773 124.693 103.949 122.44C102.816 121.04 101.769 119.593 100.915 118.334C101.149 121.382 101.223 124.25 100.996 126.062C100.883 126.966 100.362 128.148 99.6507 129.422C98.9295 130.714 97.9776 132.161 96.9451 133.615C94.9775 136.384 92.697 139.204 91.1101 141.057ZM126.109 132.901C128.897 130.685 131.397 128.122 133.544 125.278C132.764 125.418 131.968 125.551 131.174 125.67C129.577 125.908 127.985 126.092 126.56 126.165C125.144 126.238 123.858 126.203 122.892 125.988C120.986 125.565 118.791 124.262 116.856 122.854C116.396 122.52 115.947 122.177 115.517 121.835C116.457 122.944 117.696 124.294 119.112 125.78C121.235 128.009 123.72 130.51 126.109 132.901ZM135.803 123.824C136.022 123.494 136.237 123.162 136.448 122.826C136.916 123.037 137.365 123.227 137.782 123.395C137.171 123.534 136.505 123.679 135.803 123.824ZM76 73C73.3504 73 70.8424 73.6062 68.6071 74.6873C72.4068 72.0474 77.0227 70.5 82 70.5C94.9787 70.5 105.5 81.0213 105.5 94C105.5 96.098 105.276 98.2426 104.816 100.288C104.032 96.6922 100.831 94 97 94C95.1089 94 93.3711 94.6561 92.0018 95.7532C92.6479 93.9564 93 92.0193 93 90C93 80.6112 85.3888 73 76 73ZM96.5 103C97.3284 103 98 102.328 98 101.5C98 100.672 97.3284 100 96.5 100C95.6716 100 95 100.672 95 101.5C95 102.328 95.6716 103 96.5 103ZM96.5 104C97.8807 104 99 102.881 99 101.5C99 100.119 97.8807 99 96.5 99C95.1193 99 94 100.119 94 101.5C94 102.881 95.1193 104 96.5 104ZM92 90C92 98.8366 84.8366 106 76 106C67.1634 106 60 98.8366 60 90C60 81.1634 67.1634 74 76 74C84.8366 74 92 81.1634 92 90Z" fill="white"/>
</svg>
