<svg width="200" height="200" viewBox="0 0 200 200" fill="none" xmlns="http://www.w3.org/2000/svg">
<path fill-rule="evenodd" clip-rule="evenodd" d="M67.4731 132.527L43.4314 156.569L44.1386 157.276L68.1878 133.226C70.8403 135.767 73.7964 137.992 76.9962 139.844L69.6309 152.601L70.4969 153.101L77.8672 140.335C81.063 142.093 84.4901 143.481 88.0914 144.444L84.2798 158.669L85.2457 158.927L89.0603 144.691C92.5666 145.547 96.2303 146 100 146L100 180H101V145.989C104.418 145.916 107.744 145.471 110.94 144.691L114.754 158.927L115.72 158.669L111.909 144.444C115.51 143.481 118.937 142.093 122.133 140.335L129.503 153.101L130.369 152.601L123.004 139.844C126.204 137.992 129.16 135.767 131.812 133.226L155.861 157.276L156.569 156.569L132.527 132.527C135.099 129.954 137.369 127.079 139.276 123.958L139.686 124.068L152.101 131.235L152.601 130.369L139.844 123.004C141.672 119.845 143.134 116.448 144.175 112.872L158.41 116.686L158.669 115.72L144.444 111.909C145.376 108.419 145.909 104.765 145.989 101H180V100L146 100C146 96.2303 145.547 92.5666 144.691 89.0603L158.927 85.2457L158.669 84.2798L144.444 88.0914C143.481 84.4901 142.093 81.063 140.335 77.8672L153.101 70.497L152.601 69.6309L139.844 76.9962C137.992 73.7964 135.767 70.8403 133.226 68.1878L157.276 44.1386L156.569 43.4315L132.527 67.4731C129.929 64.8748 127.021 62.5859 123.864 60.6664L131.235 47.8992L130.369 47.3992L123.004 60.1562C119.845 58.3284 116.448 56.8655 112.872 55.8252L116.686 41.5902L115.72 41.3314L111.909 55.5564C108.419 54.6236 104.765 54.091 101 54.0107V20H100V54C95.8816 54 91.8897 54.5412 88.0914 55.5564L84.2798 41.3314L83.3139 41.5902L87.1281 55.8252C83.5517 56.8655 80.1552 58.3284 76.9962 60.1562L69.6309 47.3992L68.7649 47.8992L76.136 60.6664C72.979 62.5859 70.0714 64.8748 67.4731 67.4731L43.4315 43.4314L42.7244 44.1386L66.7736 68.1878C64.2334 70.8403 62.0076 73.7964 60.1562 76.9962L47.3992 69.6309L46.8992 70.4969L59.6648 77.8672C57.9075 81.063 56.5189 84.4901 55.5564 88.0914L41.3314 84.2798L41.0726 85.2457L55.3088 89.0603C54.4534 92.5666 54 96.2303 54 100L20 100V101H54.0107C54.091 104.765 54.6236 108.419 55.5564 111.909L41.3314 115.72L41.5903 116.686L55.8252 112.872C56.8655 116.448 58.3284 119.845 60.1562 123.004L47.3992 130.369L47.8992 131.235L60.2561 124.101L60.7329 123.973C62.6387 127.088 64.9047 129.959 67.4731 132.527ZM61.741 123.702C69.6783 136.487 83.845 145 100 145C116.161 145 130.333 136.48 138.268 123.687L136.246 123.145C133.077 128.098 128.92 132.358 124.054 135.648L124.316 136.666L123.433 136.06C116.692 140.45 108.644 143 100 143C91.3707 143 83.3352 140.458 76.6012 136.082L75.7501 136.666L76.0021 135.686C71.1166 132.394 66.9437 128.125 63.7636 123.16L61.741 123.702ZM64.2176 122.003C64.1631 121.914 64.109 121.826 64.0551 121.737L88.7198 105H92.3858L80.7969 117.555L64.2176 122.003ZM64.7783 122.888C67.7978 127.525 71.7082 131.529 76.2668 134.656L80.3687 118.705L64.7783 122.888ZM77.4961 135.469C84.001 139.604 91.7207 142 100 142C108.294 142 116.026 139.596 122.538 135.447L106.275 124.295L105.474 139.5H100.066H100H94.5918L93.7915 124.295L77.4961 135.469ZM123.789 134.618C128.329 131.492 132.223 127.497 135.232 122.872L119.698 118.705L123.789 134.618ZM135.964 121.705C135.907 121.799 135.85 121.893 135.792 121.987L119.269 117.555L107.68 105H111.346L135.964 121.705ZM137.302 121.405L137.487 121.529L137.345 121.33C137.331 121.355 137.317 121.38 137.302 121.405ZM136.705 120.43C136.628 120.567 136.551 120.705 136.472 120.841L113.127 105H125.742L136.705 120.43ZM137.883 120.361L139.169 122.17C142.881 115.626 145 108.061 145 100C145 75.1472 124.853 55 100 55C75.1472 55 55 75.1472 55 100C55 108.082 57.1306 115.666 60.8608 122.222L62.1454 120.414C58.8632 114.341 57 107.388 57 100C57 99.7796 57.0017 99.5596 57.005 99.34L56 99.005L57.0206 98.6575C57.3601 87.5858 61.885 77.5676 69.0665 70.1316C69.0663 70.0868 69.0662 70.0429 69.0662 70L69.2324 69.9607C77.0407 61.9643 87.9406 57 100 57C100.053 57 100.106 57.0001 100.159 57.0003L100.539 56.0364L100.863 57.0085C112.569 57.239 123.128 62.147 130.748 69.9404L131 70C131 70.0645 131 70.1311 130.999 70.1999C138.138 77.6237 142.635 87.6059 142.979 98.6348L144.066 99.005L142.995 99.3619C142.998 99.5742 143 99.7869 143 100C143 107.367 141.148 114.3 137.883 120.361ZM141.999 99.6941C142 99.796 142 99.8979 142 100C142 107.018 140.279 113.634 137.235 119.449L126.799 104.761L141.999 99.6941ZM141.966 98.29C141.555 88.0232 137.458 78.7048 130.963 71.6219C130.833 74.7508 130.329 79.7741 128.964 83.1857C128.759 83.6994 128.532 84.2135 128.287 84.724L138.003 87.7924L130.424 94.3608L141.966 98.29ZM129.741 70.3445C122.4 62.982 112.342 58.3292 101.199 58.0168L106.36 73.5H107.207L108.078 74.3704L111.452 72.3459L110.887 73.8979L118.941 69.1603L119.469 76.5546C122.813 75.2354 125.915 73.9834 126.776 73.5528C127.479 73.2014 128.174 72.5189 128.77 71.765C129.161 71.2709 129.493 70.7661 129.741 70.3445ZM99.7654 58.0006C88.2598 58.0636 77.8496 62.7528 70.3003 70.3027C70.5512 70.7325 70.8925 71.2545 71.296 71.765C71.8918 72.5189 72.5871 73.2014 73.2898 73.5528C74.1511 73.9834 77.2527 75.2354 80.5967 76.5546L81.1249 69.1603L89.1789 73.8979L88.6145 72.3459L91.9887 74.3704L92.8591 73.5H93.6596L99.7654 58.0006ZM69.1004 71.5529C62.5637 78.6496 58.4406 88.0036 58.0333 98.3128L69.5947 94.377L61.997 87.7924L71.7709 84.7059C71.5287 84.2013 71.305 83.6933 71.1019 83.1857C69.7273 79.749 69.2259 74.6766 69.1004 71.5529ZM58.0013 99.6721C58.0004 99.7813 58 99.8906 58 100C58 107.04 59.732 113.675 62.793 119.503L73.2675 104.761L58.0013 99.6721ZM63.324 120.482L74.3243 105H86.9389L63.5461 120.874C63.4714 120.743 63.3974 120.613 63.324 120.482ZM62.6845 121.382C62.6951 121.4 62.7056 121.419 62.7162 121.437L62.5797 121.529L62.6845 121.382ZM100 73.5H94.7344L100 60.1334L100 73.5ZM105.306 73.5H101V60.5811L105.306 73.5ZM104.526 138.5H100.066H100H95.5406L93.5511 100.701L79.3294 92.5745C79.1839 92.4772 79.0385 92.3749 78.8934 92.2678L81.3735 91.4235L83.125 89.0882C83.0862 89.3866 83.0662 89.691 83.0662 90C83.0662 93.866 86.2002 97 90.0662 97C92.2448 97 94.191 96.0047 95.4749 94.444L99.5198 96.7631L99.5262 96.8013L99.5068 96.9178L99.5467 96.9244L99.573 97.0822L100.033 97.0055L100.493 97.0822L100.519 96.9244L100.559 96.9178L100.54 96.8013L100.546 96.7631L104.591 94.444C105.875 96.0047 107.821 97 110 97C113.866 97 117 93.866 117 90C117 89.691 116.98 89.3866 116.941 89.0882L118.693 91.4235L121.173 92.2678C121.028 92.3749 120.882 92.4772 120.737 92.5745L106.515 100.701L104.526 138.5ZM84.0662 90C84.0662 89.3294 84.1762 88.6845 84.3791 88.0824L85.2673 88.5916C85.1364 89.0383 85.0662 89.511 85.0662 90C85.0662 92.7614 87.3048 95 90.0662 95C91.5002 95 92.7932 94.3963 93.7049 93.4292L94.5929 93.9383C93.4929 95.2015 91.8728 96 90.0662 96C86.7525 96 84.0662 93.3137 84.0662 90ZM86.0662 90C86.0662 89.693 86.1008 89.3941 86.1662 89.107L92.8064 92.914C92.0905 93.5874 91.1266 94 90.0662 94C87.857 94 86.0662 92.2091 86.0662 90ZM100.033 93.7599L101.41 85.5H100.066H100H98.6564L100.033 93.7599ZM100 84.5H100.066H102H102.59H106.779L110.87 80H105.043L103.257 82.5H100.066H100H96.8089L95.0232 80H89.1965L93.2874 84.5H97.476H98.0662H100ZM97.6426 85.5H92.845L88.1735 80.3613L84.6021 87.0576L99.3074 95.4886L97.6426 85.5ZM80.7588 90.5764L77.9747 91.5242C75.5795 89.4151 73.3549 86.1254 72.0304 82.8143C70.9151 80.0261 70.3912 76.0427 70.1827 73.0249C70.3028 73.3157 70.4315 73.6202 70.5681 73.9344C71.4746 76.0198 72.7471 78.5741 74.1799 80.3175C75.3161 81.6999 77.0403 83.1653 78.458 84.2723C79.171 84.8291 79.8144 85.3012 80.2796 85.6343C80.5124 85.8009 80.7008 85.9329 80.8314 86.0235C80.8967 86.0688 80.9475 86.1037 80.9822 86.1275L81.022 86.1546L81.0324 86.1617L81.0352 86.1635L81.0362 86.1642L81.0516 86.1746L83.1555 87.3809L80.7588 90.5764ZM64.7937 87.9579L76.0736 91.0696C74.6154 89.5175 73.2839 87.6118 72.2269 85.6106L64.7937 87.9579ZM78.7888 93.416C78.4436 93.1859 78.1003 92.9308 77.7605 92.6535L60.3435 98.5827L89.343 99.4483L78.8032 93.4256L78.7888 93.416ZM91.0512 100.5L91.0534 100.426L92.5812 101.299L92.7234 104H74.1473L60.9511 99.6013L91.0512 100.5ZM81.5191 118.247L92.8284 105.995L92.9854 108.979L77.8253 132.611L81.5191 118.247ZM78.3211 133.69L93.0755 110.691L93.7299 123.124L78.3211 133.69ZM81.9628 71.4651L81.5719 76.9385C83.5731 77.7249 85.5917 78.5093 87.2101 79.1342L81.9628 71.4651ZM72.8426 74.4472C74.3817 75.2168 82.5985 78.4274 87.1378 80.1782L83.7342 86.56L81.5814 85.3257L81.5469 85.3021C81.5138 85.2795 81.4648 85.2458 81.4013 85.2018C81.2744 85.1138 81.0901 84.9846 80.8618 84.8212C80.405 84.4942 79.7731 84.0304 79.0734 83.4841C77.6658 82.385 76.015 80.9753 74.9525 79.6825C73.6131 78.0527 72.3855 75.607 71.4852 73.5357L71.4301 73.4086C71.8617 73.8252 72.3375 74.1946 72.8426 74.4472ZM100.066 74.5H100H93.2733L92.7192 75.054L97.3235 81.5H100H100.066H102.743L107.347 75.054L106.793 74.5H100.066ZM91.7197 75.3752L90.5179 74.6541L92.0361 78.8291L91.5662 79H94.3089L91.7197 75.3752ZM114.799 88.5916L115.687 88.0824C115.89 88.6845 116 89.3294 116 90C116 93.3137 113.314 96 110 96C108.193 96 106.573 95.2015 105.473 93.9383L106.361 93.4292C107.273 94.3963 108.566 95 110 95C112.761 95 115 92.7614 115 90C115 89.511 114.93 89.0383 114.799 88.5916ZM110 94C108.94 94 107.976 93.5874 107.26 92.914L113.9 89.107C113.965 89.3941 114 89.693 114 90C114 92.2091 112.209 94 110 94ZM102.424 85.5L100.759 95.4886L115.464 87.0576L111.893 80.3613L107.221 85.5H102.424ZM123.993 91.0696C125.446 89.5221 126.774 87.6231 127.83 85.6285L135.237 87.9676L123.993 91.0696ZM121.277 93.416C121.623 93.1859 121.966 92.9308 122.306 92.6535L139.723 98.5827L110.723 99.4483L121.263 93.4256L121.277 93.416ZM107.485 101.299L109.013 100.426L109.015 100.5L139.115 99.6013L125.919 104H107.343L107.485 101.299ZM107.081 108.979L107.238 105.995L118.547 118.247L122.241 132.611L107.081 108.979ZM106.336 123.124L106.991 110.691L121.745 133.69L106.336 123.124ZM128.036 82.8143C126.711 86.1254 124.487 89.4151 122.091 91.5242L119.307 90.5764L116.911 87.3809L119.015 86.1746L119.03 86.1642L119.031 86.1635L119.034 86.1617L119.044 86.1546L119.084 86.1275C119.119 86.1037 119.17 86.0688 119.235 86.0235C119.365 85.9329 119.554 85.8009 119.787 85.6343C120.252 85.3012 120.895 84.8291 121.608 84.2723C123.026 83.1653 124.75 81.6999 125.886 80.3175C127.319 78.5741 128.592 76.0198 129.498 73.9344C129.635 73.6202 129.763 73.3157 129.883 73.0249C129.675 76.0427 129.151 80.0261 128.036 82.8143ZM127.224 74.4472C127.729 74.1946 128.204 73.8252 128.636 73.4086L128.581 73.5357C127.681 75.607 126.453 78.0527 125.114 79.6825C124.051 80.9753 122.4 82.385 120.993 83.4841C120.293 84.0304 119.661 84.4942 119.204 84.8212C118.976 84.9846 118.792 85.1138 118.665 85.2018C118.618 85.2341 118.58 85.2608 118.549 85.2817L118.519 85.3021L118.485 85.3257L116.332 86.56L112.928 80.1782C117.468 78.4274 125.684 75.2168 127.224 74.4472ZM118.103 71.4651L112.856 79.1342C114.474 78.5093 116.493 77.7249 118.494 76.9385L118.103 71.4651ZM105.757 79H108.5L108.03 78.8291L109.548 74.6541L108.346 75.3752L105.757 79ZM111.736 79L116.822 71.5672L110.351 75.3738L109.032 79H111.736ZM123.888 92.1358L129.328 93.9876L135.002 89.0698L123.888 92.1358ZM76.1782 92.1358L64.967 89.043L70.6909 94.0038L76.1782 92.1358ZM88.3299 79L83.2443 71.5672L89.7155 75.3738L91.0342 79H88.3299ZM102.734 102.5H100.066H100H97.332L94.832 105.5H94.5492L95.5826 136.5H100H100.066H104.484L105.517 105.5H105.234L102.734 102.5ZM100 105.5H96.1337L97.8004 103.5H100H100.066H102.266L103.932 105.5H100.066H100ZM104.377 106.5H104.483L103.516 135.5H102.377L100 127.18L97.6228 135.5H96.5498L95.5831 106.5H95.6228L98 114.82L100 107.82L102 114.82L104.377 106.5ZM103.337 106.5L102 111.18L100.663 106.5H103.337ZM100 135.5H98.6629L100 130.82L101.337 135.5H100.066H100ZM96.6629 106.5L98 111.18L99.3371 106.5H96.6629Z" fill="white"/>
</svg>
