<svg width="200" height="200" viewBox="0 0 200 200" fill="none" xmlns="http://www.w3.org/2000/svg">
<path fill-rule="evenodd" clip-rule="evenodd" d="M44.1385 157.276L43.4314 156.569L67.473 132.527C64.8665 129.92 62.5713 127.002 60.6481 123.834L60.6664 123.864L47.8992 131.235L47.3992 130.369L60.1562 123.004C58.3285 119.845 56.8656 116.448 55.8252 112.872L41.5902 116.686L41.3314 115.72L55.5564 111.909C54.6235 108.419 54.0909 104.765 54.0106 101H20V100H54C54 95.9803 54.5156 92.081 55.4843 88.3646C55.424 88.5958 55.3655 88.8277 55.3087 89.0603L41.0726 85.2457L41.3314 84.2798L55.5564 88.0914C56.5189 84.4901 57.9075 81.063 59.6648 77.8672L46.8992 70.4969L47.3992 69.6309L60.1562 76.9962C62.0077 73.7964 64.2334 70.8403 66.7737 68.1878L42.7244 44.1385L43.4315 43.4315L67.4731 67.4731C70.0714 64.8748 72.979 62.5859 76.136 60.6664L68.7649 47.8992L69.6309 47.3992L76.9962 60.1562C80.1553 58.3284 83.5518 56.8655 87.1282 55.8252L83.3138 41.5902L84.2798 41.3314L88.0914 55.5564C91.8898 54.5412 95.8817 54 100 54V20H101V54V54.0107C104.765 54.091 108.419 54.6236 111.909 55.5564L115.72 41.3314L116.686 41.5903L112.872 55.8252C116.46 56.869 119.867 58.3382 123.035 60.1744L123.137 60.2333L123.274 60.3137C123.195 60.267 123.115 60.2206 123.035 60.1744L123.004 60.1562L130.369 47.3992L131.235 47.8992L123.864 60.6664C127.021 62.5859 129.929 64.8748 132.527 67.4731L156.569 43.4315L157.276 44.1385L133.226 68.1878C135.767 70.8403 137.992 73.7964 139.844 76.9962L152.601 69.6309L153.101 70.4969L140.335 77.8672C142.093 81.063 143.481 84.4901 144.444 88.0914L158.669 84.2798L158.927 85.2457L144.691 89.0603C145.547 92.5666 146 96.2303 146 100H180V101H145.989C145.909 104.765 145.376 108.419 144.444 111.909L158.669 115.72L158.41 116.686L144.175 112.872C143.134 116.448 141.672 119.845 139.844 123.004L152.601 130.369L152.101 131.235L139.334 123.864C139.405 123.746 139.476 123.628 139.547 123.51C137.584 126.804 135.222 129.832 132.527 132.527L156.569 156.569L155.861 157.276L131.812 133.226C129.16 135.767 126.204 137.992 123.004 139.844L130.369 152.601L129.503 153.101L122.133 140.335C118.937 142.093 115.51 143.481 111.909 144.444L115.72 158.669L114.754 158.927L110.94 144.691C107.744 145.471 104.418 145.917 101 145.989V180H100V146C96.2303 146 92.5665 145.547 89.0603 144.691L85.2457 158.927L84.2798 158.669L88.0914 144.444C84.4901 143.481 81.063 142.093 77.8672 140.335L70.4969 153.101L69.6309 152.601L76.9962 139.844C73.7964 137.992 70.8403 135.767 68.1879 133.226L44.1385 157.276ZM100 55C75.1472 55 55 75.1472 55 100C55 110.357 58.4989 119.897 64.379 127.502L64.7604 127L65.6346 125.85C60.2136 118.655 57 109.703 57 100C57 90.5234 60.0656 81.7629 65.2592 74.6559L64.7604 74L64 73H65.2562H66.5317C74.4144 63.2412 86.4783 57 100 57V55ZM101 57.0114V55.0109C125.391 55.5427 145 75.4814 145 100C145 110.354 141.503 119.891 135.626 127.495L135.26 127L134.388 125.82C139.795 118.63 143 109.689 143 100C143 90.5338 139.941 81.7821 134.758 74.6793L135.26 74L136 73H134.756H133.468C125.78 63.4824 114.116 57.3107 101 57.0114ZM100 58C87.0852 58 75.5317 63.8292 67.8273 73H82.0499L81.1719 72.0227L80.75 66.292L85.502 69.5227L86.6361 73H96V68.3077L94.4644 65L94 64H95.1025H100V58ZM101 64V58.0117C113.51 58.304 124.668 64.0665 132.173 73H118.95L119.828 72.0227L120.25 66.292L115.498 69.5227L114.364 73H105V68.3077L106.536 65L107 64H105.897H101ZM100 65H95.5668L96.907 67.8865L97 68.0869V68.3077V73H100V65ZM101 73V65H105.433L104.093 67.8866L104 68.0869V68.3077V73H101ZM100 74V86H101V74H104V86.0845V86.4141L104.196 86.6791L114.048 100H103.965C103.722 98.3038 102.263 97 100.5 97C98.7368 97 97.2781 98.3038 97.0354 100H86.548L96.796 86.5231L97 86.2548V85.9178V74H100ZM97.0354 101H86.548L96.796 114.477L97 114.745V115.082V127H100V115H101V127H104V114.915V114.586L104.196 114.321L114.048 101H103.965C103.722 102.696 102.263 104 100.5 104C98.7368 104 97.2781 102.696 97.0354 101ZM102.95 101C102.718 102.141 101.709 103 100.5 103C99.2905 103 98.2816 102.141 98.05 101H102.95ZM102.95 100H98.05C98.2816 98.8589 99.2905 98 100.5 98C101.709 98 102.718 98.8589 102.95 100ZM100 145C114.268 145 126.986 138.359 135.23 128H134.756H132.635C124.951 136.948 113.65 142.7 101 142.989V143H100C86.946 143 75.2507 137.183 67.3646 128H65.2562H64.77C73.0143 138.359 85.7317 145 100 145ZM131.306 128C123.822 136.362 113.037 141.707 101 141.988V137H105.897H107L106.536 136L105 132.692V128H114.364L115.498 131.477L120.25 134.708L119.828 128.977L118.95 128H131.306ZM100 137V142C87.561 142 76.385 136.592 68.6945 128H82.0499L81.1719 128.977L80.75 134.708L85.502 131.477L86.6361 128H96V132.692L94.4644 136L94 137H95.1025H100ZM105.433 136H101V128H104V132.692V132.913L104.093 133.113L105.433 136ZM100 136V128H97V132.692V132.913L96.907 133.113L95.5668 136H100ZM65.8914 75.4874C60.9252 82.3855 58 90.8511 58 100C58 109.375 61.0719 118.034 66.2642 125.022L84.9114 100.5L65.8914 75.4874ZM85.5396 101.326L66.8931 125.847C67.1978 126.237 67.5093 126.621 67.8273 127H82.9482L89.25 119.986L86.9623 127H96V115.082L85.5396 101.326ZM105 127H114.038L111.75 119.986L118.052 127H132.173C132.501 126.609 132.822 126.212 133.136 125.81L115.04 101.341L105 114.915V127ZM115.661 100.5L133.767 124.981C138.94 117.999 142 109.357 142 100C142 90.8668 139.085 82.4145 134.134 75.5228L115.661 100.5ZM115.04 99.6592L133.513 74.6807C133.425 74.564 133.336 74.4477 133.246 74.3319L133.124 74.1738L133.042 74.0704L132.987 74H118.052L111.75 81.0144L114.038 74H105V86.0845L115.04 99.6592ZM96 74V85.9178L85.5396 99.6739L66.5105 74.6494C66.5924 74.5414 66.6748 74.4338 66.7577 74.3267C66.8423 74.2173 66.9274 74.1085 67.0129 74H82.9482L89.25 81.0144L86.9623 74H96ZM133.573 126.87C133.538 126.913 133.503 126.957 133.468 127H134.017L133.753 126.644L133.652 126.771L133.573 126.87ZM66.462 126.913L66.5317 127H66.0167L66.2677 126.67L66.3623 126.789L66.462 126.913ZM78 100.5L66.174 98L61 100.5L66.174 103L78 100.5ZM134.826 98L123 100.5L134.826 103L140 100.5L134.826 98ZM102 89.5C102 90.3284 101.328 91 100.5 91C99.6716 91 99 90.3284 99 89.5C99 88.6716 99.6716 88 100.5 88C101.328 88 102 88.6716 102 89.5ZM100.5 113C101.328 113 102 112.328 102 111.5C102 110.672 101.328 110 100.5 110C99.6716 110 99 110.672 99 111.5C99 112.328 99.6716 113 100.5 113Z" fill="white"/>
</svg>
