<svg width="200" height="200" viewBox="0 0 200 200" fill="none" xmlns="http://www.w3.org/2000/svg">
<path fill-rule="evenodd" clip-rule="evenodd" d="M43.4314 156.569L67.4731 132.527C64.8748 129.929 62.5859 127.021 60.6664 123.864L47.8992 131.235L47.3992 130.369L60.1562 123.004C58.3284 119.845 56.8655 116.448 55.8252 112.872L41.5903 116.686L41.3314 115.72L55.5564 111.909C54.6236 108.419 54.091 104.765 54.0107 101C54.0104 100.989 54.0102 100.977 54.0099 100.966C54.0102 100.977 54.0104 100.989 54.0107 101H20V100L53.459 100C53.6393 99.7049 53.8224 99.4117 54.0082 99.1203C54.0731 95.66 54.5201 92.2932 55.3088 89.0603L41.0726 85.2457L41.3314 84.2798L55.5564 88.0914C56.5189 84.4901 57.9075 81.063 59.6648 77.8672L46.8992 70.4969L47.3992 69.6309L60.1562 76.9962C62.0076 73.7964 64.2334 70.8403 66.7736 68.1878L42.7244 44.1386L43.4315 43.4314L67.4731 67.4731C70.0714 64.8748 72.979 62.5859 76.136 60.6664L68.7649 47.8992L69.6309 47.3992L76.9962 60.1562C80.1552 58.3284 83.5517 56.8655 87.1281 55.8252L83.3139 41.5902L84.2798 41.3314L88.0914 55.5564C91.8897 54.5412 95.8816 54 100 54V20H101V54.0107C104.765 54.091 108.419 54.6236 111.909 55.5564L115.72 41.3314L116.686 41.5902L112.872 55.8252C116.448 56.8655 119.845 58.3284 123.004 60.1562L130.369 47.3992L131.235 47.8992L123.864 60.6664C127.021 62.5859 129.929 64.8748 132.527 67.4731L156.569 43.4315L157.276 44.1386L133.226 68.1878C135.767 70.8403 137.992 73.7964 139.844 76.9962L152.601 69.6309L153.101 70.497L140.335 77.8672C142.093 81.063 143.481 84.4901 144.444 88.0914L158.669 84.2798L158.927 85.2457L144.691 89.0603C145.547 92.5666 146 96.2303 146 100L180 100V101H145.989C145.909 104.765 145.376 108.419 144.444 111.909L158.669 115.72L158.41 116.686L144.175 112.872C143.134 116.448 141.672 119.845 139.844 123.004L152.601 130.369L152.101 131.235L139.334 123.864C137.414 127.021 135.125 129.929 132.527 132.527L156.569 156.569L155.861 157.276L131.812 133.226C129.16 135.767 126.204 137.992 123.004 139.844L130.369 152.601L129.503 153.101L122.133 140.335C118.937 142.093 115.51 143.481 111.909 144.444L115.72 158.669L114.754 158.927L110.94 144.691C107.744 145.471 104.418 145.916 101 145.989V180H100L100 146C96.2303 146 92.5666 145.547 89.0603 144.691L85.2457 158.927L84.2798 158.669L88.0914 144.444C84.4901 143.481 81.063 142.093 77.8672 140.335L70.4969 153.101L69.6309 152.601L76.9962 139.844C73.7964 137.992 70.8403 135.767 68.1878 133.226L44.1386 157.276L43.4314 156.569ZM144.97 101.665C144.094 125.747 124.295 145 100 145C76.0088 145 56.4026 126.226 55.072 102.567C55.8017 103.627 56.5681 104.658 57.3694 105.661C60.1408 126.734 78.1708 143 100 143C122.124 143 140.346 126.292 142.735 104.805C143.516 103.786 144.261 102.739 144.97 101.665ZM99.7168 125.045C82.9946 125.045 68.0744 117.327 58.3256 105.255C58.1779 104.072 58.0795 102.874 58.0323 101.663C66.9804 115.14 82.2894 124.027 99.6751 124.042L99.7168 124.083L99.7584 124.042C117.534 124.027 133.139 114.737 141.993 100.75C141.972 101.986 141.897 103.21 141.77 104.418C132.042 116.969 116.822 125.045 99.7168 125.045ZM99.7168 126.045C83.2742 126.045 68.5424 118.72 58.607 107.155C62.0032 126.943 79.2432 142 100 142C121.047 142 138.478 126.519 141.527 106.323C131.591 118.368 116.55 126.045 99.7168 126.045ZM99.6751 76.0416C82.2872 76.0558 66.9765 84.9456 58.029 98.4251C58.0735 97.2175 58.169 96.0228 58.3134 94.8433C68.062 82.7628 82.9876 75.0378 99.7168 75.0378C116.828 75.0378 132.053 83.1199 141.78 95.6783C141.904 96.8831 141.976 98.1029 141.995 99.3357C133.14 85.3474 117.535 76.0561 99.7584 76.0416L99.7168 76L99.6751 76.0416ZM57 100C57 98.7648 57.0521 97.5417 57.1542 96.3329C56.4022 97.3353 55.6847 98.3651 55.0037 99.4206C55.0012 99.6135 55 99.8066 55 100C55 100.222 55.0016 100.443 55.0048 100.664C55.688 101.723 56.4077 102.756 57.1622 103.761C57.056 102.535 57.0012 101.295 57 100.042V100ZM55.067 97.5232C55.7942 96.4672 56.558 95.4382 57.3564 94.4381C60.0841 73.3172 78.1365 57 100 57C122.157 57 140.4 73.7588 142.745 95.2923C143.524 96.308 144.267 97.3521 144.973 98.4228C144.142 74.3004 124.325 55 100 55C75.9782 55 56.3527 73.8223 55.067 97.5232ZM100 58C79.2069 58 61.9429 73.11 58.5893 92.9488C68.5249 81.3718 83.2644 74.0378 99.7168 74.0378C116.559 74.0378 131.606 81.7235 141.542 93.779C138.536 73.5331 121.082 58 100 58ZM143 100C143 99.0562 142.97 98.1195 142.91 97.1908C143.578 98.1191 144.216 99.0698 144.825 100.042C144.215 101.016 143.574 101.97 142.904 102.901C142.968 101.942 143 100.975 143 100ZM58.1758 100.042C65.2586 111.334 76.8155 119.531 90.3602 122.149C87.5077 120.941 84.9375 119.196 82.7757 117.042H82.7168V116.983C78.4 112.651 75.728 106.679 75.7168 100.083L75.6751 100.042L75.7168 100C75.728 93.4041 78.4 87.4322 82.7168 83.1006V83.0416H82.7757C84.9375 80.8873 87.5077 79.1426 90.3602 77.9339C76.8155 80.5527 65.2586 88.7495 58.1758 100.042ZM82.7168 115.534C79.2127 111.691 76.9941 106.655 76.741 101.108L82.7168 107.083V115.534ZM83.7168 116.042V108.083L91.6751 116.042H83.7168ZM83.7168 106.669L93.0893 116.042H106.344L115.717 106.669V93.4142L106.344 84.0416H93.0894L83.7168 93.4142V106.669ZM84.2246 117.042H92.6751L98.6509 123.017C93.103 122.764 88.0675 120.546 84.2246 117.042ZM84.2246 83.0416C88.0675 79.5375 93.103 77.319 98.6509 77.0659L92.6751 83.0416H84.2246ZM99.7168 77.4142L105.344 83.0416H94.0894L99.7168 77.4142ZM115.717 92L107.758 84.0416H115.717V92ZM122.344 100.042L116.717 105.669V94.4142L122.344 100.042ZM107.758 116.042L115.717 108.083V116.042H107.758ZM115.209 117.042H106.758L100.783 123.017C106.331 122.764 111.366 120.546 115.209 117.042ZM99.7168 122.669L105.344 117.042H94.0893L99.7168 122.669ZM122.693 101.108L116.717 107.083V115.534C120.221 111.691 122.439 106.655 122.693 101.108ZM116.717 93L122.693 98.9757C122.439 93.4278 120.221 88.3924 116.717 84.5495V93ZM123.758 100.042L123.717 100.083C123.706 106.679 121.034 112.651 116.717 116.983V117.042H116.658C114.496 119.196 111.926 120.941 109.073 122.149C122.618 119.531 134.175 111.334 141.258 100.042C134.175 88.7496 122.618 80.5527 109.073 77.9339C111.926 79.1426 114.496 80.8873 116.658 83.0416H116.717V83.1006C121.034 87.4322 123.706 93.404 123.717 100L123.758 100.042ZM100.783 77.0659L106.758 83.0416H115.209C111.366 79.5376 106.331 77.319 100.783 77.0659ZM83.7168 84.0416H91.6751L83.7168 92V84.0416ZM82.7168 84.5495V93L76.741 98.9757C76.9941 93.4278 79.2127 88.3924 82.7168 84.5495ZM77.0893 100.042L82.7168 105.669V94.4142L77.0893 100.042ZM99.7168 104.042C101.926 104.042 103.717 102.251 103.717 100.042C103.717 97.8325 101.926 96.0416 99.7168 96.0416C97.5076 96.0416 95.7168 97.8325 95.7168 100.042C95.7168 102.251 97.5076 104.042 99.7168 104.042ZM99.7168 105.042C102.478 105.042 104.717 102.803 104.717 100.042C104.717 97.2802 102.478 95.0416 99.7168 95.0416C96.9553 95.0416 94.7168 97.2802 94.7168 100.042C94.7168 102.803 96.9553 105.042 99.7168 105.042Z" fill="white"/>
</svg>
