<svg width="200" height="200" viewBox="0 0 200 200" fill="none" xmlns="http://www.w3.org/2000/svg">
<path fill-rule="evenodd" clip-rule="evenodd" d="M43.4314 156.569L67.4731 132.527C64.8748 129.929 62.5859 127.021 60.6664 123.864L47.8992 131.235L47.3992 130.369L60.1562 123.004C58.3284 119.845 56.8655 116.448 55.8252 112.872L41.5903 116.686L41.3314 115.72L55.5564 111.909C54.6236 108.419 54.091 104.765 54.0107 101H20V100L54 100C54 96.2303 54.4534 92.5666 55.3088 89.0603L41.0726 85.2457L41.3314 84.2798L55.5564 88.0914C56.5189 84.4901 57.9075 81.063 59.6648 77.8672L46.8992 70.4969L47.3992 69.6309L60.1562 76.9962C62.0076 73.7964 64.2334 70.8403 66.7736 68.1878L42.7244 44.1386L43.4315 43.4314L67.4731 67.4731C70.0714 64.8748 72.979 62.5859 76.136 60.6664L68.7649 47.8992L69.6309 47.3992L76.9962 60.1562C80.1552 58.3284 83.5517 56.8655 87.1281 55.8252L83.3139 41.5902L84.2798 41.3314L88.0914 55.5564C91.8897 54.5412 95.8816 54 100 54V20H101V54.0107C104.765 54.091 108.419 54.6236 111.909 55.5564L115.72 41.3314L116.686 41.5902L112.872 55.8252C116.448 56.8655 119.845 58.3284 123.004 60.1562L130.369 47.3992L131.235 47.8992L123.864 60.6664C127.021 62.5859 129.929 64.8748 132.527 67.4731L156.569 43.4315L157.276 44.1386L133.226 68.1878C135.767 70.8403 137.992 73.7964 139.844 76.9962L152.601 69.6309L153.101 70.497L140.335 77.8672C142.093 81.063 143.481 84.4901 144.444 88.0914L158.669 84.2798L158.927 85.2457L144.691 89.0603C145.547 92.5666 146 96.2303 146 100L180 100V101H145.989C145.909 104.765 145.376 108.419 144.444 111.909L158.669 115.72L158.41 116.686L144.175 112.872C143.134 116.448 141.672 119.845 139.844 123.004L152.601 130.369L152.101 131.235L139.334 123.864C137.414 127.021 135.125 129.929 132.527 132.527L156.569 156.569L155.861 157.276L131.812 133.226C129.16 135.767 126.204 137.992 123.004 139.844L130.369 152.601L129.503 153.101L122.133 140.335C118.937 142.093 115.51 143.481 111.909 144.444L115.72 158.669L114.754 158.927L110.94 144.691C107.744 145.471 104.418 145.916 101 145.989V180H100L100 146C96.2303 146 92.5666 145.547 89.0603 144.691L85.2457 158.927L84.2798 158.669L88.0914 144.444C84.4901 143.481 81.063 142.093 77.8672 140.335L70.4969 153.101L69.6309 152.601L76.9962 139.844C73.7964 137.992 70.8403 135.767 68.1878 133.226L44.1386 157.276L43.4314 156.569ZM100 145C119.714 145 136.466 132.324 142.552 114.678L140.198 115.302C134.03 131.495 118.359 143 100 143C76.2518 143 57 123.748 57 100C57 81.4804 68.7077 65.6952 85.1255 59.6422L85.6349 57.7308L86.9247 59.024C91.0478 57.7095 95.441 57 100 57C102.513 57 104.975 57.2155 107.37 57.6291L108.281 56.7141L108.585 57.8571C116.704 59.5022 123.994 63.435 129.751 68.9537C129.866 69.0599 129.979 69.1667 130.092 69.2743L132.02 68.3812C123.861 60.1198 112.528 55 100 55C75.1472 55 55 75.1472 55 100C55 124.853 75.1472 145 100 145ZM58 100C58 82.1613 69.1212 66.9201 84.8085 60.8315L84.6024 61.6049L86.0077 64.3416C79.4391 68.2676 74.2006 74.1888 71.1291 81.2682C69.1891 85.7398 68.1136 90.6734 68.1136 95.8583C68.1136 116.122 84.5406 132.549 104.804 132.549C108.532 132.549 112.13 131.993 115.519 130.96L115.553 130.955C115.633 130.944 115.697 130.936 115.745 130.931L115.771 130.928L115.783 130.927C115.798 130.926 115.806 130.925 115.81 130.925L115.81 130.925C115.812 130.925 115.812 130.925 115.811 130.925V130.869C124.521 128.134 131.831 122.238 136.398 114.526L138.69 115.701L139 115.619C132.802 131.08 117.676 142 100 142C76.804 142 58 123.196 58 100ZM86.5306 65.3601L86.4655 65.2332C82.8578 67.3981 79.6642 70.1824 77.0318 73.4394C77.5742 73.3822 78.2132 73.2802 78.8795 73.1147C80.0515 72.8238 81.2659 72.3469 82.1877 71.6096C83.1167 70.8664 84.1212 69.5126 85.0125 68.0742C85.6004 67.1252 86.125 66.1628 86.5306 65.3601ZM87.0914 66.4522L88.9326 70.0378L88.735 66.0277C90.8385 67.3551 94.2511 68.8142 98.0415 68.4983C98.1276 68.4911 98.2132 68.4833 98.2981 68.4749L97.756 69.6607C96.0609 73.3688 92.7932 76.0793 91.3902 76.9561L90.5946 77.4534L91.451 77.8365C91.8967 78.0359 92.6264 78.3326 93.3803 78.5806C94.1163 78.8227 94.9408 79.041 95.5476 79.041C96.1276 79.041 96.8747 78.904 97.5453 78.746C98.2254 78.5857 98.8682 78.3937 99.2566 78.2642L99.5488 78.1668L99.5933 77.862C99.7635 76.6944 99.8023 73.5078 98.6905 69.7275L98.3214 68.4725C101.359 68.1666 103.64 67.07 105.13 65.9873L104.979 69.0388L106.768 65.5509C107.372 66.6052 108.171 67.8619 109.089 69.0765C110.428 70.8489 112.069 72.5936 113.776 73.4472C115.467 74.2928 117.966 74.7142 120.346 74.9108C121.556 75.0107 122.753 75.0538 123.826 75.0611L118.326 82.3155L125.408 76.9457C125.274 77.8645 125.2 78.9003 125.238 79.9923C125.319 82.3436 125.921 84.9911 127.596 87.2941C129.896 90.4572 132.672 92.4646 134.729 93.5608L131.319 95.3141L135.081 95.1309C134.639 95.6218 134.188 96.187 133.772 96.8099C132.804 98.2592 132 100.064 132 102C132 103.878 132.519 106.062 133.149 108.004C133.586 109.349 134.082 110.597 134.516 111.577L130.228 111.363L133.502 113.041C132.343 113.801 130.816 114.977 129.146 116.646C126.427 119.366 126.172 122.607 126.439 124.247C123.151 126.756 119.414 128.708 115.369 129.959L115.304 129.98L115.235 129.989L115.225 129.99L115.224 129.99C115.099 130.008 114.958 130.027 114.796 130.048C114.294 130.113 113.627 130.192 112.856 130.244C111.31 130.348 109.368 130.346 107.519 129.936C100.405 128.361 96.2377 125.629 93.8493 122.868C91.4595 120.105 90.8211 117.279 90.8211 115.459C90.8211 113.711 91.8359 111.901 93.2515 110.532C94.6783 109.152 96.381 108.343 97.6259 108.426C98.6726 108.496 100.264 109.126 101.889 109.941C103.489 110.744 105.041 111.685 105.977 112.303L106.102 112.386H107.935L114.546 116.827L118.628 114.276L122.565 113.065L123.591 110.359H127.06L116.311 99.6098V95.5788L107.93 85.6558C108.123 83.6462 108.359 78.8024 107.909 73.7034L107.794 72.403L107.011 73.4474C102.791 79.074 97.754 79.813 94.7626 79.813C93.3999 79.813 91.7804 79.3528 89.8418 78.8019L89.4315 78.6854C87.3423 78.0937 84.9542 77.4517 82.3354 77.3034C80.1929 77.1822 77.9234 77.7287 75.9775 78.4411C74.8327 78.8602 73.786 79.342 72.925 79.7929C73.8667 77.9278 74.9673 76.1566 76.209 74.4972C76.9243 74.4787 77.9883 74.3664 79.1205 74.0853C80.3652 73.7762 81.7341 73.2531 82.8123 72.3904C83.8833 71.5337 84.9621 70.054 85.8625 68.6009C86.3172 67.8671 86.7346 67.1263 87.0914 66.4522ZM127.365 123.515C130.599 120.874 133.362 117.676 135.506 114.069L134.536 113.571C133.422 114.248 131.744 115.463 129.854 117.354C127.696 119.511 127.284 122.012 127.365 123.515ZM135.639 111.633L136.799 111.691C139.165 106.92 140.495 101.544 140.495 95.8583C140.495 95.5271 140.49 95.197 140.481 94.868L136.543 95.0597C135.931 95.6435 135.224 96.4349 134.603 97.3652C133.696 98.7242 133 100.336 133 102C133 103.722 133.481 105.788 134.101 107.696C134.599 109.229 135.177 110.634 135.639 111.633ZM135.828 92.9956L139.727 90.9906L140.182 91.1123C139.43 85.4521 137.351 80.211 134.269 75.7117C133.234 74.2544 132.109 72.866 130.901 71.5546L130.025 73.4445L126.584 76.0535C126.352 77.1257 126.186 78.4852 126.237 79.9577C126.314 82.1731 126.879 84.6089 128.404 86.7059C130.865 90.0889 133.885 92.0725 135.828 92.9956ZM124.585 74.0604L127.197 70.6161L129.114 69.7279L129.065 69.6814C123.726 64.731 116.871 61.3938 109.273 60.4447L109.312 60.593L107.317 64.4823C107.923 65.5964 108.822 67.0655 109.886 68.4735C111.205 70.2178 112.731 71.8065 114.224 72.5528C115.733 73.3073 118.067 73.7191 120.429 73.9142C121.903 74.036 123.36 74.0713 124.585 74.0604ZM105.196 64.6591L105.418 60.1729C105.214 60.1695 105.009 60.1677 104.804 60.1677C98.9849 60.1677 93.4906 61.5604 88.6367 64.031L88.6738 64.786C90.5341 66.0997 94.0503 67.8274 97.9585 67.5017C101.48 67.2082 103.902 65.7868 105.196 64.6591ZM88.4661 60.5696L88.5829 62.9392C93.4738 60.5245 98.9806 59.1677 104.804 59.1677C105.145 59.1677 105.485 59.1724 105.823 59.1816L106.502 58.5002C104.383 58.1709 102.211 58 100 58C95.7283 58 91.6055 58.6377 87.7216 59.8232L88.4661 60.5696ZM108.996 59.4046L108.872 58.9389C110.405 59.2684 111.906 59.6816 113.371 60.1733C111.944 59.8318 110.483 59.5737 108.996 59.4046ZM145 100C145 105.131 144.141 110.062 142.56 114.656L140.975 113.079C142.29 108.955 143 104.56 143 100C143 97.6717 142.815 95.3866 142.459 93.1587L143.592 92.0255L142.19 91.65C140.998 85.594 138.535 79.9942 135.09 75.1403C133.972 73.51 132.727 71.9745 131.367 70.5483L132.259 68.6252C140.144 76.731 145 87.7984 145 100ZM142 100C142 104.274 141.362 108.399 140.175 112.284L139.726 111.837L137.886 111.745C140.199 106.938 141.495 101.55 141.495 95.8583C141.495 95.2894 141.482 94.7235 141.456 94.161L141.58 94.0372C141.857 95.985 142 97.9758 142 100ZM107.303 130.913C108.047 131.077 108.8 131.18 109.536 131.238C107.988 131.443 106.409 131.549 104.804 131.549C85.0928 131.549 69.1136 115.57 69.1136 95.8583C69.1136 90.8129 70.16 86.0145 72.0465 81.6662C72.0901 81.5656 72.1342 81.4652 72.1788 81.3651C73.096 80.796 74.5896 80.0141 76.3213 79.3801C78.2039 78.6909 80.3276 78.1914 82.2789 78.3018C84.7774 78.4433 87.0721 79.0565 89.1589 79.6475L89.4212 79.722L89.6195 79.7784L89.6195 79.7785C91.4996 80.3138 93.2531 80.813 94.7626 80.813C97.7625 80.813 102.713 80.0996 107.011 75.0496C107.33 79.7868 107.089 84.1028 106.914 85.7643L106.892 85.9763L115.311 95.9446V100.024L124.646 109.359H122.901L121.803 112.253L118.209 113.359L114.566 115.635L108.239 111.386H106.402C105.43 110.751 103.909 109.836 102.337 109.047C100.719 108.235 98.9631 107.513 97.6924 107.429C96.0408 107.318 94.0744 108.345 92.5563 109.813C91.027 111.292 89.8211 113.344 89.8211 115.459C89.8211 117.501 90.5344 120.564 93.093 123.522C95.653 126.482 100.03 129.302 107.303 130.913ZM92.6947 77.2709C93.0033 77.3912 93.3458 77.5166 93.6928 77.6307C94.4272 77.8723 95.1164 78.041 95.5476 78.041C96.0055 78.041 96.6583 77.9276 97.3159 77.7726C97.8086 77.6566 98.2814 77.5227 98.6391 77.412C98.7383 76.3314 98.7201 74.0401 98.0617 71.2567C96.4851 74.0398 94.1943 76.1578 92.6947 77.2709ZM105.897 91.2706L111.284 96.6092L111.622 99.6529L108.723 96.8749L105.897 91.2706Z" fill="white"/>
</svg>
