<svg width="200" height="200" viewBox="0 0 200 200" fill="none" xmlns="http://www.w3.org/2000/svg">
<path fill-rule="evenodd" clip-rule="evenodd" d="M76.136 60.6664L68.7649 47.8992L69.6309 47.3992L76.9962 60.1562C80.1552 58.3284 83.5517 56.8655 87.1281 55.8252L83.3139 41.5902L84.2798 41.3314L88.0914 55.5564C91.8897 54.5412 95.8816 54 100 54V20H101V54.0107C104.765 54.091 108.419 54.6236 111.909 55.5564L115.72 41.3314L116.686 41.5902L112.872 55.8252C116.448 56.8655 119.845 58.3284 123.004 60.1562L130.369 47.3992L131.235 47.8992L123.864 60.6664C127.123 62.6477 130.115 65.0224 132.777 67.7248L157.07 43.4314L157.777 44.1385L133.471 68.4449C135.91 71.0309 138.052 73.8994 139.844 76.9962L152.601 69.6309L153.101 70.497L140.335 77.8672C142.093 81.063 143.481 84.4901 144.444 88.0914L158.669 84.2798L158.927 85.2457L144.691 89.0603C145.547 92.5666 146 96.2303 146 100L180 100V101H145.989C145.909 104.765 145.376 108.419 144.444 111.909L158.669 115.72L158.41 116.686L144.175 112.872C143.134 116.448 141.672 119.845 139.844 123.004L152.601 130.369L152.101 131.235L139.334 123.864C137.476 126.919 135.272 129.741 132.777 132.275L157.07 156.569L156.363 157.276L132.067 132.98C129.35 135.623 126.307 137.933 123.004 139.844L130.369 152.601L129.503 153.101L122.133 140.335C118.937 142.093 115.51 143.481 111.909 144.444L115.72 158.669L114.754 158.927L110.94 144.691C107.744 145.471 104.418 145.916 101 145.989V180H100L100 146C96.2303 146 92.5666 145.547 89.0603 144.691L85.2457 158.927L84.2798 158.669L88.0914 144.444C84.4901 143.481 81.063 142.093 77.8672 140.335L70.4969 153.101L69.6309 152.601L76.9962 139.844C73.8994 138.052 71.0309 135.91 68.4449 133.471L44.64 157.276L43.9329 156.569L67.7248 132.777C65.0224 130.115 62.6477 127.123 60.6664 123.864L47.8992 131.235L47.3992 130.369L60.1562 123.004C58.3284 119.845 56.8655 116.448 55.8252 112.872L41.5903 116.686L41.3314 115.72L55.5564 111.909C54.6236 108.419 54.091 104.765 54.0107 101H20V100L54 100C54 96.2303 54.4534 92.5666 55.3088 89.0603L41.0726 85.2457L41.3314 84.2798L55.5564 88.0914C56.5189 84.4901 57.9075 81.063 59.6648 77.8672L46.8992 70.4969L47.3992 69.6309L60.1562 76.9962C62.0672 73.6934 64.377 70.6503 67.0199 67.9327L43.2257 44.1385L43.9328 43.4314L67.7247 67.2234C70.2586 64.728 73.0805 62.5242 76.136 60.6664ZM69.1523 132.763C77.0075 140.162 87.5233 144.767 99.1122 144.991C98.7895 144.474 98.5198 143.78 98.3268 142.968C87.6007 142.558 77.8815 138.218 70.5672 131.348L69.1523 132.763ZM100.488 144.997L100.513 144.997C100.576 144.98 100.865 144.862 101.224 144.126C101.381 143.804 101.523 143.414 101.642 142.969C101.097 142.99 100.55 143 100 143C99.788 143 99.5765 142.998 99.3652 142.995C99.4824 143.43 99.6221 143.81 99.7759 144.126C100.137 144.866 100.427 144.981 100.488 144.997ZM131.36 132.273C123.68 139.737 113.345 144.483 101.907 144.96C102.228 144.435 102.495 143.735 102.685 142.918C113.261 142.266 122.803 137.791 129.946 130.859L131.36 132.273ZM129.239 130.151C122.319 136.863 113.097 141.213 102.872 141.903C102.912 141.612 102.944 141.31 102.965 141H103V108.603L105.345 106.258L117.715 118.628C115.444 120.786 112.768 122.521 109.814 123.708L109.5 123.834V124V131H110.5V124.507C113.457 123.274 116.138 121.51 118.423 119.336L121.94 122.853L119.5 125.293V134.707L126.647 127.56L129.239 130.151ZM126.647 126.146L106.052 105.551L108.698 102.905L129.293 123.5L126.647 126.146ZM107.991 102.198L106.293 100.5L107.994 98.7986L105.556 96.3599L101.209 100.707L105.345 104.844L107.991 102.198ZM125.727 118.52L122.134 114.926C124.892 110.798 126.5 105.836 126.5 100.5C126.5 97.596 126.024 94.8022 125.145 92.1932C126.676 91.2496 128.034 90.0485 129.155 88.6502C130.666 92.3002 131.5 96.3021 131.5 100.5C131.5 107.222 129.361 113.442 125.727 118.52ZM129.305 122.097L133.084 125.877C138.67 118.745 142 109.761 142 100C142 90.8567 139.078 82.3958 134.118 75.5H126.416L122.916 79H129.207L109.409 98.7986L111.107 100.497L109.405 102.198L121.412 114.205C121.457 114.137 121.501 114.069 121.545 114H121.5V113V93V92.7929L121.833 92.6751C126.273 91.106 129.757 87.437 131.018 82.867L131.5 83L131.938 82.7585C134.778 87.9074 136.5 94.2046 136.5 100.5C136.5 108.603 133.823 116.081 129.305 122.097ZM128.59 121.383C132.931 115.554 135.5 108.327 135.5 100.5C135.5 94.7977 134.045 89.0866 131.614 84.2852C131.169 85.5093 130.571 86.6613 129.846 87.7193C131.553 91.6346 132.5 95.9573 132.5 100.5C132.5 107.497 130.254 113.97 126.444 119.237L128.59 121.383ZM122.5 93.4958C123.105 93.2663 123.692 93 124.259 92.6997C125.064 95.1536 125.5 97.7754 125.5 100.5C125.5 104.802 124.414 108.85 122.5 112.385V93.4958ZM126.793 80L108.701 98.0915L106.263 95.6528L121.916 80H126.793ZM109.692 100.497L108.701 99.5057L107.707 100.5L108.698 101.491L109.692 100.497ZM120.501 80L105.556 94.9457L103 92.39V80H120.501ZM101 79H102V62H105V61H102V58.0468C101.337 58.0157 100.67 58 100 58C99.6657 58 99.3324 58.0039 99 58.0117V61H96V62H99V79H100V80H99V92.8042L96.1528 95.6514L100.501 100L104.849 95.6528L102 92.8042V80H101V79ZM121.501 79H103V63H106V60H103V58.1055C113.528 58.8485 122.984 63.4715 129.948 70.5533L126.5 74.0014V72.5H103V73.5H125.5V75.0014L121.501 79ZM130.655 69.8461C123.496 62.5689 113.766 57.829 102.936 57.0987C102.821 56.2981 102.556 55.5893 102.19 55.0524C113.871 55.6121 124.385 60.6256 132.07 68.4319L130.655 69.8461ZM100.56 55.0034L100.452 55.0022C100.23 55.0224 99.9031 55.1849 99.5802 55.7016C99.3674 56.0421 99.1927 56.4889 99.0924 57.0094C99.3942 57.0031 99.6967 57 100 57C100.641 57 101.279 57.014 101.914 57.0418C101.814 56.5075 101.637 56.0491 101.42 55.7016C101.103 55.194 100.782 55.0282 100.56 55.0034ZM68.4319 67.9305C76.2976 60.187 86.9987 55.3153 98.836 55.0148C98.4657 55.5436 98.1944 56.2461 98.0721 57.0424C87.091 57.527 77.1801 62.13 69.8461 69.3447L68.4319 67.9305ZM70.5533 70.0519C77.69 63.0339 87.3238 58.5473 98 58.0468V60H95V63H98V79H79.5014L75.5 74.9986V73.5H98V72.5H74.5V73.9986L70.5533 70.0519ZM80.5014 80H98V92.39L95.4457 94.9443L80.5014 80ZM79.0872 80L94.7386 95.6514L92.2986 98.0914L74.2071 80H79.0872ZM99.7943 100.707L95.6562 104.845L93.0091 102.198L94.7071 100.5L93.0057 98.7985L95.4457 96.3585L99.7943 100.707ZM100.501 101.414L96.3633 105.552L99 108.189V140.471L99.0321 140.93C99.0581 141.302 99.0991 141.657 99.1527 141.992C99.4344 141.997 99.7169 142 100 142C100.621 142 101.238 141.987 101.852 141.96C101.903 141.634 101.943 141.29 101.968 140.93L102 140.471V108.189L104.638 105.551L100.501 101.414ZM79.0614 122.854L82.5787 119.337C84.8633 121.511 87.5432 123.274 90.5 124.507V131H91.5V124V123.834L91.1864 123.708C88.2324 122.521 85.557 120.787 83.286 118.63L95.6562 106.259L98 108.603V141H98.0346C98.0576 141.33 98.0919 141.65 98.1364 141.959C87.7618 141.506 78.364 137.29 71.2747 130.641L74.3543 127.561L81.5 134.707V125.293L79.0614 122.854ZM78.3543 122.147L94.9491 105.552L92.302 102.905L71.7071 123.5L74.3543 126.147L77.6472 122.854L77.6465 122.854L78.3536 122.146L78.3543 122.147ZM75.2726 118.52L78.8664 114.927C76.1082 110.799 74.5 105.836 74.5 100.5C74.5 97.596 74.9763 94.8022 75.8554 92.1931C74.3243 91.2495 72.9661 90.0484 71.8453 88.6501C70.3341 92.3002 69.5 96.3021 69.5 100.5C69.5 107.222 71.6386 113.442 75.2726 118.52ZM75.5 100.5C75.5 97.7754 75.9357 95.1535 76.7408 92.6997C77.3078 93 77.8952 93.2662 78.5 93.4957V112.385C76.5865 108.85 75.5 104.802 75.5 100.5ZM79.5879 114.205C79.5432 114.137 79.4987 114.069 79.4547 114H79.5V113V93V92.7929L79.1666 92.675C74.7273 91.106 71.2433 87.4369 69.982 82.8669L69.5 83L69.0622 82.7585C66.222 87.9074 64.5 94.2046 64.5 100.5C64.5 108.603 67.1774 116.081 71.6955 122.097L67.3596 126.433C61.5068 119.215 58 110.017 58 100C58 90.8567 60.9217 82.3958 65.8823 75.5H74.5872L78.0872 79H71.7929L91.5915 98.7986L89.8934 100.497L91.5949 102.198L79.5879 114.205ZM72.4099 121.383C68.0689 115.554 65.5 108.327 65.5 100.5C65.5 94.7977 66.955 89.0866 69.3861 84.2852C69.8315 85.5092 70.4288 86.6613 71.1544 87.7192C69.4469 91.6345 68.5 95.9573 68.5 100.5C68.5 107.497 70.746 113.97 74.5562 119.237L72.4099 121.383ZM93.2929 100.5L92.302 101.491L91.3076 100.497L92.2986 99.5057L93.2929 100.5ZM69.8461 130.655L68.4319 132.07C60.1407 123.907 55 112.554 55 100C55 90.9639 57.6633 82.5498 62.2478 75.5H64.6577C59.8297 82.4514 57 90.8953 57 100C57 110.293 60.6167 119.742 66.6487 127.144L66.6465 127.146L66.6684 127.168C67.6639 128.388 68.7249 129.552 69.8461 130.655ZM71 124.207L68.0013 127.206C68.8112 128.157 69.6628 129.072 70.5533 129.948L73.6472 126.854L71 124.207ZM127.354 126.853L129.948 129.447C130.824 128.556 131.66 127.627 132.454 126.661L130 124.207L127.354 126.853ZM133.165 127.372L133.647 127.854L134.354 127.146L133.796 126.589C139.561 119.272 143 110.038 143 100C143 90.8953 140.17 82.4514 135.342 75.5H137.752C142.337 82.5498 145 90.9639 145 100C145 112.299 140.066 123.445 132.07 131.568L130.655 130.154C131.531 129.264 132.368 128.335 133.165 127.372ZM125.94 126.853L120.5 132.293V125.707L122.647 123.56L125.94 126.853ZM80.5 125.707L78.3543 123.561L75.0614 126.854L80.5 132.293V125.707ZM127.416 74.5H133.376C132.518 73.3791 131.605 72.3026 130.641 71.2747L127.416 74.5ZM131.348 70.5672C132.517 71.8109 133.612 73.1241 134.626 74.5H137.083C135.779 72.6077 134.334 70.82 132.763 69.1523L131.348 70.5672ZM69.8486 70.7614L73.5872 74.5H66.6244C67.626 73.191 68.7029 71.9427 69.8486 70.7614ZM69.1414 70.0542L67.727 68.6399C65.9657 70.4522 64.3556 72.4124 62.9173 74.5H65.3735C66.5291 72.9335 67.7884 71.4482 69.1414 70.0542Z" fill="white"/>
</svg>
