<svg width="36" height="36" viewBox="0 0 36 36" fill="none" xmlns="http://www.w3.org/2000/svg">
<mask id="path-1-inside-1_552_509" fill="white">
<path fill-rule="evenodd" clip-rule="evenodd" d="M4 18C6.55662 12.8554 11.8654 9.31995 18 9.31995C24.1346 9.31995 29.4434 12.8554 32 18C29.4434 23.1445 24.1346 26.68 18 26.68C11.8654 26.68 6.55662 23.1445 4 18Z"/>
</mask>
<path d="M4 18L3.10449 17.555L2.88332 18L3.10449 18.445L4 18ZM32 18L32.8955 18.445L33.1167 18L32.8955 17.555L32 18ZM4.89551 18.445C7.28971 13.6273 12.2595 10.3199 18 10.3199V8.31995C11.4713 8.31995 5.82354 12.0836 3.10449 17.555L4.89551 18.445ZM18 10.3199C23.7405 10.3199 28.7103 13.6273 31.1045 18.445L32.8955 17.555C30.1765 12.0836 24.5287 8.31995 18 8.31995V10.3199ZM31.1045 17.555C28.7103 22.3727 23.7405 25.68 18 25.68V27.68C24.5287 27.68 30.1765 23.9164 32.8955 18.445L31.1045 17.555ZM18 25.68C12.2595 25.68 7.28971 22.3727 4.89551 17.555L3.10449 18.445C5.82354 23.9164 11.4713 27.68 18 27.68V25.68Z" fill="white" mask="url(#path-1-inside-1_552_509)"/>
<circle cx="18" cy="18" r="6.5" stroke="white"/>
<path d="M18 12.75C18 12.75 18.6694 15.1694 19.75 16.25C20.8306 17.3306 23.25 18 23.25 18C23.25 18 20.8306 18.6694 19.75 19.75C18.6694 20.8306 18 23.25 18 23.25C18 23.25 17.3306 20.8306 16.25 19.75C15.1694 18.6694 12.75 18 12.75 18C12.75 18 15.1694 17.3306 16.25 16.25C17.3306 15.1694 18 12.75 18 12.75Z" fill="white"/>
<path d="M9 13L6 9" stroke="white"/>
<path d="M30 27L27 23" stroke="white"/>
<path d="M18 10V6" stroke="white"/>
<path d="M18 30V26" stroke="white"/>
<path d="M27 13L30 9" stroke="white"/>
<path d="M6 27L9 23" stroke="white"/>
</svg>
