<svg width="36" height="36" viewBox="0 0 36 36" fill="none" xmlns="http://www.w3.org/2000/svg">
<path d="M6.5 15.5V15.5C6.5 16.8807 7.61929 18 9 18H13V30H31L27 21H28L26 17H27L25 13H26.5L19.5 4.5V8.5L16.5 5V8.5H13C11.067 8.5 9.5 10.067 9.5 12V12H4V13C4 14.3807 5.11929 15.5 6.5 15.5V15.5ZM6.5 15.5H12.5" stroke="white"/>
<path fill-rule="evenodd" clip-rule="evenodd" d="M16.4545 13.8636L14 13.25L16.4545 12.6364L17 11L17.5455 12.6364L20 13.25L17.5455 13.8636L17 15.5L16.4545 13.8636Z" fill="white"/>
</svg>
